<svg xmlns="http://www.w3.org/2000/svg" width="42" height="43" viewBox="0 0 42 43" fill="none"><path d="M31.9987 31.9284H10.5702C8.6416 31.9284 7.1416 30.4284 7.1416 28.4998V17.3569H35.4273V28.2855C35.4273 30.4284 33.9273 31.9284 31.9987 31.9284Z" stroke="#88B04B" stroke-miterlimit="10"></path><path d="M9.92732 6.21436H32.6416C34.1416 6.21436 35.4273 7.50007 35.4273 9.00007V10.9286H7.1416V9.00007C7.1416 7.50007 8.42732 6.21436 9.92732 6.21436Z" stroke="#88B04B" stroke-miterlimit="10"></path><path d="M17.2129 6.21415V5.14272C17.2129 3.857 18.2843 2.57129 19.7843 2.57129H22.7843C24.07 2.57129 25.3557 3.64272 25.3557 5.14272V6.21415" stroke="#88B04B" stroke-miterlimit="10"></path><path d="M7.14188 23.1427H4.78474C3.28474 23.1427 1.99902 21.857 1.99902 20.357C1.99902 18.857 3.28474 17.5713 4.78474 17.5713H7.14188" stroke="#88B04B" stroke-miterlimit="10"></path><path d="M35.4277 17.3569H37.7849C39.2849 17.3569 40.5706 18.6426 40.5706 20.1426C40.5706 21.6426 39.2849 22.9284 37.7849 22.9284H35.4277" stroke="#88B04B" stroke-miterlimit="10"></path><path d="M5.21289 39.6426H37.3557" stroke="#88B04B" stroke-miterlimit="10"></path><path d="M10.5705 38.3569C10.5705 39.2141 9.92759 39.6426 9.28474 39.6426C8.42759 39.6426 7.99902 38.9998 7.99902 38.3569C7.99902 37.4998 9.28474 35.3569 9.28474 35.3569C9.28474 35.3569 10.5705 37.4998 10.5705 38.3569Z" stroke="#88B04B" stroke-miterlimit="10" stroke-linejoin="round"></path><path d="M34.7843 38.3569C34.7843 39.2141 34.1415 39.6426 33.4986 39.6426C32.6415 39.6426 32.2129 38.9998 32.2129 38.3569C32.2129 37.4998 33.4986 35.3569 33.4986 35.3569C33.4986 35.3569 34.7843 37.4998 34.7843 38.3569Z" stroke="#88B04B" stroke-miterlimit="10" stroke-linejoin="round"></path><path d="M28.7843 38.3569C28.7843 39.2141 28.1415 39.6426 27.4986 39.6426C26.6415 39.6426 26.2129 38.9998 26.2129 38.3569C26.2129 37.4998 27.4986 35.3569 27.4986 35.3569C27.4986 35.3569 28.7843 37.4998 28.7843 38.3569Z" stroke="#88B04B" stroke-miterlimit="10" stroke-linejoin="round"></path><path d="M22.7843 38.3569C22.7843 39.2141 22.1415 39.6426 21.4986 39.6426C20.8557 39.6426 20.2129 38.9998 20.2129 38.3569C20.2129 37.4998 21.4986 35.3569 21.4986 35.3569C21.4986 35.3569 22.7843 37.4998 22.7843 38.3569Z" stroke="#88B04B" stroke-miterlimit="10" stroke-linejoin="round"></path><path d="M16.5705 38.3569C16.5705 39.2141 15.9276 39.6426 15.2847 39.6426C14.4276 39.6426 13.999 38.9998 13.999 38.3569C13.999 37.4998 15.2847 35.3569 15.2847 35.3569C15.2847 35.3569 16.5705 37.4998 16.5705 38.3569Z" stroke="#88B04B" stroke-miterlimit="10" stroke-linejoin="round"></path><path d="M25.7852 16.9283C25.7852 15.4283 27.0709 14.1426 28.5709 14.1426C30.0709 14.1426 31.3566 15.4283 31.3566 16.9283" stroke="#88B04B" stroke-miterlimit="10"></path><path d="M22.3564 16.9282C22.3564 16.0711 22.9993 15.4282 23.8564 15.4282C24.7136 15.4282 25.3564 16.0711 25.3564 16.9282" stroke="#88B04B" stroke-miterlimit="10"></path><path d="M11.4277 17.1429C11.4277 16.0715 12.2849 15.2144 13.3563 15.2144C14.4277 15.2144 15.2849 16.0715 15.2849 17.1429" stroke="#88B04B" stroke-miterlimit="10"></path><path d="M19.7852 17.3569V20.3569C19.7852 20.9998 20.2137 21.4284 20.8566 21.4284H21.0709C21.7137 21.4284 22.1423 20.9998 22.1423 20.3569V22.9284C22.1423 23.5712 22.5709 23.9998 23.2137 23.9998C23.8566 23.9998 24.2852 23.5712 24.2852 22.9284V21.4284C24.2852 22.0712 24.7137 22.4998 25.3566 22.4998H25.9994C26.6423 22.4998 27.0709 22.0712 27.0709 21.4284V17.3569" stroke="#88B04B" stroke-miterlimit="10" stroke-linejoin="round"></path></svg>