<svg xmlns="http://www.w3.org/2000/svg" width="20" height="21" viewBox="0 0 20 21" fill="none"><path d="M14.1667 18V16.3333C14.1667 15.4493 13.8155 14.6014 13.1904 13.9763C12.5653 13.3512 11.7174 13 10.8334 13H4.16671C3.28265 13 2.43481 13.3512 1.80968 13.9763C1.18456 14.6014 0.833374 15.4493 0.833374 16.3333V18" stroke="#403E3C" stroke-width="1.66667" stroke-linecap="round" stroke-linejoin="round"></path><path d="M7.49996 9.66667C9.34091 9.66667 10.8333 8.17428 10.8333 6.33333C10.8333 4.49238 9.34091 3 7.49996 3C5.65901 3 4.16663 4.49238 4.16663 6.33333C4.16663 8.17428 5.65901 9.66667 7.49996 9.66667Z" stroke="#403E3C" stroke-width="1.66667" stroke-linecap="round" stroke-linejoin="round"></path><path d="M19.1666 18.0001V16.3334C19.1661 15.5948 18.9203 14.8774 18.4678 14.2937C18.0153 13.7099 17.3817 13.293 16.6666 13.1084" stroke="#403E3C" stroke-width="1.66667" stroke-linecap="round" stroke-linejoin="round"></path><path d="M13.3334 3.1084C14.0504 3.29198 14.6859 3.70898 15.1397 4.29366C15.5936 4.87833 15.8399 5.59742 15.8399 6.33757C15.8399 7.07771 15.5936 7.7968 15.1397 8.38147C14.6859 8.96615 14.0504 9.38315 13.3334 9.56673" stroke="#403E3C" stroke-width="1.66667" stroke-linecap="round" stroke-linejoin="round"></path></svg>